<?xml version="1.0" standalone="no"?><!DOCTYPE svg PUBLIC "-//W3C//DTD SVG 1.1//EN" "http://www.w3.org/Graphics/SVG/1.1/DTD/svg11.dtd"><svg t="1718780647471" class="icon" viewBox="0 0 1024 1024" version="1.1" xmlns="http://www.w3.org/2000/svg" p-id="14298" xmlns:xlink="http://www.w3.org/1999/xlink" width="32" height="32"><path d="M682.276571 201.581714c-11.410286-9.581714-25.6-6.363429-34.157714 0-8.557714 9.654857-14.189714 25.6-8.557714 38.4 5.705143 12.8 8.557714 28.818286 11.410286 44.836572C574.171429 83.236571 446.171429 38.4 440.466286 35.108571a25.088 25.088 0 0 0-25.6 6.436572c-8.484571 6.363429-11.337143 19.163429-8.484572 28.818286 11.337143 86.308571-22.820571 188.708571-102.4 310.345142a345.234286 345.234286 0 0 0-28.525714-79.945142c-8.484571-9.654857-19.894857-16.091429-31.232-12.8-14.262857 3.145143-22.747429 12.8-22.747429 28.745142-2.925714 48.054857-22.747429 92.818286-45.494857 140.8-19.968 41.618286-39.862857 86.454857-48.420571 134.436572C99.181714 742.4 215.771429 921.6 335.286857 972.8c8.484571 3.218286 17.042286 6.363429 28.379429 9.581714-22.674286-19.163429-36.937143-51.2-42.642286-95.963428C298.276571 691.2 485.961143 640 494.445714 460.8c136.557714 105.618286 199.094857 336.018286 122.294857 505.636571 2.925714 0 5.705143-3.218286 8.557715-3.218285 0 0 2.852571 0 2.852571-3.218286 145.042286-89.6 224.694857-208.018286 230.4-345.6 14.189714-211.163429-145.042286-390.363429-176.347428-412.818286z" fill="#e6e6e6" p-id="14299"></path></svg>